<?xml version="1.0" encoding="utf-8"?>
<!-- Designed by Vexels.com - 2019 All Rights Reserved - https://vexels.com/terms-and-conditions/  -->
<svg version="1.1" id="Layer_1" xmlns="http://www.w3.org/2000/svg" xmlns:xlink="http://www.w3.org/1999/xlink" x="0px" y="0px"
	 viewBox="0 0 1200 1200" enable-background="new 0 0 1200 1200" xml:space="preserve">
<path fill="#363E54" d="M788.073,508.098V356.822L612.084,209.842v-77.406h49.025v-23.52h-49.025V50h-23.553v58.917h-49.642v23.52
	h49.642v80.062L411.926,356.822v151.276L150.26,606.223V1150h261.666h115.501V973.17c0-40.08,32.491-72.571,72.572-72.571l0,0
	c40.081,0,72.572,32.491,72.572,72.571V1150h115.501h261.667V602.135L788.073,508.098z M368.103,942.92H261.8v-96.923
	c0-29.354,23.796-53.151,53.151-53.151c29.354,0,53.151,23.797,53.151,53.151V942.92z M599.999,344.556
	c27.096,0,49.063,21.966,49.063,49.063s-21.966,49.063-49.063,49.063c-27.096,0-49.062-21.966-49.062-49.063
	S572.903,344.556,599.999,344.556z M654.664,793.869h-109.33V629.874c0-30.065,24.599-54.665,54.665-54.665
	c30.065,0,54.665,24.599,54.665,54.665V793.869z M960.943,942.92H854.641v-96.923c0-29.354,23.796-53.151,53.151-53.151
	s53.151,23.797,53.151,53.151V942.92z"/>
</svg>
