<?xml version="1.0"?>
<svg xmlns="http://www.w3.org/2000/svg" viewBox="0 0 64 64" width="512" height="512"><g id="worldwide-homes-house-men-connection"><path d="M61.59,10.19l-11-8a1.022,1.022,0,0,0-1.18,0l-11,8A1,1,0,0,0,38,11v5a.988.988,0,0,0,.55.89,1,1,0,0,0,1.04-.08L41,15.78v6.86a12.946,12.946,0,0,0-18,0V15.78l1.41,1.03A1,1,0,0,0,26,16V11a1,1,0,0,0-.41-.81l-11-8a1.022,1.022,0,0,0-1.18,0l-11,8A1,1,0,0,0,2,11v5a.988.988,0,0,0,.55.89,1,1,0,0,0,1.04-.08L5,15.78V25a1,1,0,0,0,1,1H20.48a13,13,0,1,0,23.04,0H58a1,1,0,0,0,1-1V15.78l1.41,1.03A1,1,0,0,0,62,16V11A1,1,0,0,0,61.59,10.19ZM38.31,23.01a11.269,11.269,0,0,1-2.24,1.21,13.585,13.585,0,0,0-1.03-2.78A10.746,10.746,0,0,1,38.31,23.01ZM32,21c.59,0,1.5,1.31,2.16,3.78a10.714,10.714,0,0,1-4.32,0C30.5,22.31,31.41,21,32,21Zm-7.88,3.34a12.879,12.879,0,0,0,3.37,1.85A32.008,32.008,0,0,0,27.02,31H21.05A10.913,10.913,0,0,1,24.12,24.34ZM4,14.04V11.51L14,4.24l10,7.27v2.53L14.59,7.19a1.011,1.011,0,0,0-1.18,0ZM17,24H11V23a1,1,0,0,1,1-1h4a1,1,0,0,1,1,1Zm-5-8a2,2,0,0,1,4,0Zm3,2v1a1,1,0,0,1-2,0V18Zm6,6H19V23a2.994,2.994,0,0,0-2.22-2.88A3.02,3.02,0,0,0,17,19V18a1,1,0,0,0,1-1V16a4,4,0,0,0-8,0v1a1,1,0,0,0,1,1v1a3.02,3.02,0,0,0,.22,1.12A2.994,2.994,0,0,0,9,23v1H7V14.33l7-5.09,7,5.09Zm.05,9h5.97a32.008,32.008,0,0,0,.47,4.81,12.879,12.879,0,0,0-3.37,1.85A10.913,10.913,0,0,1,21.05,33Zm4.64,7.99a11.269,11.269,0,0,1,2.24-1.21,13.585,13.585,0,0,0,1.03,2.78A10.746,10.746,0,0,1,25.69,40.99Zm2.24-16.77a11.269,11.269,0,0,1-2.24-1.21,10.746,10.746,0,0,1,3.27-1.57A13.585,13.585,0,0,0,27.93,24.22ZM32,43c-.59,0-1.5-1.31-2.16-3.78a10.714,10.714,0,0,1,4.32,0C33.5,41.69,32.59,43,32,43Zm2.58-5.73a12.462,12.462,0,0,0-5.16,0,30.012,30.012,0,0,1-.4-4.27h5.96A30.012,30.012,0,0,1,34.58,37.27ZM29.02,31a30.012,30.012,0,0,1,.4-4.27,12.462,12.462,0,0,0,5.16,0,30.012,30.012,0,0,1,.4,4.27Zm6.02,11.56a13.585,13.585,0,0,0,1.03-2.78,11.269,11.269,0,0,1,2.24,1.21A10.746,10.746,0,0,1,35.04,42.56Zm4.84-2.9a12.879,12.879,0,0,0-3.37-1.85A32.008,32.008,0,0,0,36.98,33h5.97A10.913,10.913,0,0,1,39.88,39.66ZM36.98,31a32.008,32.008,0,0,0-.47-4.81,12.879,12.879,0,0,0,3.37-1.85A10.913,10.913,0,0,1,42.95,31ZM53,24H47V23a1,1,0,0,1,1-1h4a1,1,0,0,1,1,1Zm-5-8a2,2,0,0,1,4,0Zm3,2v1a1,1,0,0,1-2,0V18Zm6,6H55V23a2.994,2.994,0,0,0-2.22-2.88A3.02,3.02,0,0,0,53,19V18a1,1,0,0,0,1-1V16a4,4,0,0,0-8,0v1a1,1,0,0,0,1,1v1a3.02,3.02,0,0,0,.22,1.12A2.994,2.994,0,0,0,45,23v1H43V14.33l7-5.09,7,5.09Zm3-9.96L50.59,7.19a1.011,1.011,0,0,0-1.18,0L40,14.04V11.51L50,4.24l10,7.27Z"/><path d="M25.59,46.19l-11-8a1.022,1.022,0,0,0-1.18,0l-11,8A1,1,0,0,0,2,47v5a.988.988,0,0,0,.55.89,1,1,0,0,0,1.04-.08L5,51.78V61a1,1,0,0,0,1,1H22a1,1,0,0,0,1-1V51.78l1.41,1.03A1,1,0,0,0,26,52V47A1,1,0,0,0,25.59,46.19ZM17,60H11V59a1,1,0,0,1,1-1h4a1,1,0,0,1,1,1Zm-5-8a2,2,0,0,1,4,0Zm3,2v1a1,1,0,0,1-2,0V54Zm6,6H19V59a2.994,2.994,0,0,0-2.22-2.88A3.02,3.02,0,0,0,17,55V54a1,1,0,0,0,1-1V52a4,4,0,0,0-8,0v1a1,1,0,0,0,1,1v1a3.02,3.02,0,0,0,.22,1.12A2.994,2.994,0,0,0,9,59v1H7V50.33l7-5.09,7,5.09Zm3-9.96-9.41-6.85a1.011,1.011,0,0,0-1.18,0L4,50.04V47.51l10-7.27,10,7.27Z"/><path d="M61.59,46.19l-11-8a1.022,1.022,0,0,0-1.18,0l-11,8A1,1,0,0,0,38,47v5a.988.988,0,0,0,.55.89,1,1,0,0,0,1.04-.08L41,51.78V61a1,1,0,0,0,1,1H58a1,1,0,0,0,1-1V51.78l1.41,1.03A1,1,0,0,0,62,52V47A1,1,0,0,0,61.59,46.19ZM53,60H47V59a1,1,0,0,1,1-1h4a1,1,0,0,1,1,1Zm-5-8a2,2,0,0,1,4,0Zm3,2v1a1,1,0,0,1-2,0V54Zm6,6H55V59a2.994,2.994,0,0,0-2.22-2.88A3.02,3.02,0,0,0,53,55V54a1,1,0,0,0,1-1V52a4,4,0,0,0-8,0v1a1,1,0,0,0,1,1v1a3.02,3.02,0,0,0,.22,1.12A2.994,2.994,0,0,0,45,59v1H43V50.33l7-5.09,7,5.09Zm3-9.96-9.41-6.85a1.011,1.011,0,0,0-1.18,0L40,50.04V47.51l10-7.27,10,7.27Z"/></g></svg>
