<?xml version="1.0" standalone="no"?>
<!DOCTYPE svg PUBLIC "-//W3C//DTD SVG 20010904//EN"
 "http://www.w3.org/TR/2001/REC-SVG-20010904/DTD/svg10.dtd">
<svg version="1.0" xmlns="http://www.w3.org/2000/svg"
 width="454.000000pt" height="200.000000pt" viewBox="0 0 454.000000 200.000000"
 preserveAspectRatio="xMidYMid meet">

<g transform="translate(0.000000,200.000000) scale(0.100000,-0.100000)"
fill="#000000" stroke="none">
<path d="M369 1534 c-62 -19 -122 -78 -138 -135 -9 -33 -12 -118 -9 -305 3
-253 4 -260 28 -309 21 -41 35 -55 80 -77 116 -58 251 -44 336 34 50 46 59 72
69 201 l7 87 -111 0 -111 0 -1 -77 c-1 -109 -8 -128 -44 -128 l-30 0 -3 282
c-2 271 -2 283 17 293 47 25 61 -9 61 -146 l0 -84 111 0 112 0 -7 98 c-9 130
-21 169 -65 213 -63 63 -195 86 -302 53z"/>
<path d="M965 1537 c-61 -20 -93 -45 -123 -96 l-27 -46 -3 -262 c-4 -293 1
-324 54 -383 48 -52 110 -75 204 -74 95 0 166 33 207 95 25 38 28 52 36 195 5
91 5 212 0 299 -9 138 -11 147 -39 187 -44 63 -101 91 -193 95 -45 2 -93 -3
-116 -10z m127 -162 c10 -36 9 -466 -1 -515 -5 -29 -11 -35 -31 -35 l-25 0 -3
279 c-2 286 1 311 36 304 9 -2 19 -16 24 -33z"/>
<path d="M2325 1531 c-97 -25 -126 -67 -133 -188 l-5 -83 107 0 106 0 0 58 c0
64 17 99 44 89 26 -10 38 -57 32 -122 -7 -70 -21 -85 -83 -85 l-43 0 0 -59 0
-60 44 -6 c25 -4 52 -15 60 -24 36 -39 32 -232 -4 -251 -14 -7 -23 -6 -34 6
-12 12 -16 38 -16 115 l0 99 -105 0 -105 0 0 -82 c1 -150 28 -210 115 -248 91
-40 224 -33 298 16 62 41 81 95 81 234 0 129 -16 182 -58 201 l-26 12 34 38
c82 90 48 273 -61 324 -41 20 -196 30 -248 16z"/>
<path d="M3585 1529 c-49 -4 -124 -7 -166 -8 l-75 -1 -18 -142 c-24 -189 -23
-188 -52 -188 l-24 0 0 -124 c0 -68 4 -126 9 -128 8 -3 -11 -173 -20 -183 -3
-2 -27 85 -54 195 l-48 199 33 163 c18 90 35 173 38 186 4 22 2 22 -86 22
-104 0 -92 13 -118 -123 -10 -50 -20 -83 -24 -75 -4 7 -15 55 -25 106 l-17 92
-104 0 c-64 0 -104 -4 -104 -10 0 -6 16 -83 35 -173 19 -89 35 -175 35 -192 0
-16 -16 -120 -35 -230 -19 -110 -35 -208 -35 -217 0 -16 12 -18 104 -18 l104
0 5 33 c4 17 14 84 23 147 l18 115 27 -134 c15 -73 30 -140 33 -147 4 -11 46
-14 211 -14 l205 0 0 130 0 130 29 0 c36 0 31 32 71 -415 16 -181 32 -350 35
-375 l6 -45 119 10 c65 6 121 13 123 15 3 4 -34 421 -67 753 -6 56 -5 57 19
57 23 0 25 -4 25 -42 0 -66 18 -116 56 -158 48 -52 110 -75 204 -74 95 0 166
33 207 95 25 39 28 53 36 195 6 94 6 210 0 299 -8 137 -10 147 -39 187 -16 24
-50 54 -74 68 -39 22 -58 25 -135 25 -116 0 -175 -26 -220 -99 -26 -43 -30
-59 -33 -147 l-4 -99 -33 0 -32 0 -12 163 c-7 89 -14 168 -16 175 -3 6 -15 11
-27 10 -13 0 -63 -4 -113 -9z m517 -164 c10 -36 9 -466 -1 -515 -5 -29 -11
-35 -31 -35 l-25 0 -3 279 c-2 286 1 311 36 304 9 -2 19 -16 24 -33z"/>
<path d="M1519 1461 c-21 -18 -48 -56 -65 -93 -28 -61 -29 -69 -32 -248 -3
-171 -2 -189 18 -243 39 -104 104 -154 190 -145 l35 3 0 150 0 150 -40 3 c-70
4 -83 10 -90 41 -15 68 19 105 72 77 28 -14 132 -116 190 -186 16 -19 69 -81
117 -138 l89 -103 51 3 51 3 3 354 c2 253 -1 358 -9 367 -15 18 -105 19 -116
2 -4 -7 -10 -82 -13 -166 l-5 -153 -115 142 c-131 161 -188 209 -254 209 -31
0 -50 -7 -77 -29z"/>
</g>
</svg>
